# xmcd
#
# Track frame offsets:
# 150
# 21597
# 39047
# 55450
# 78372
# 88475
# 109360
# 117802
# 133685
# 152980
# 171747
# 193925
# 212910
#
# Disc length: 3136 seconds
#
# Revision: 0
# Processed by: cddbd v1.4PL0 Copyright (c) Steve Scherf et al.
# Submitted via: Axialis_AX_CDPlayer 2.6
#
DISCID=c50c3e0d
DTITLE=Jerry Portnoy - Down in the Mood
DYEAR=1900
DGENRE=
TTITLE0=Doodlin'
TTITLE1=So Slow
TTITLE2=You Rascal You
TTITLE3=Canadian Sunset
TTITLE4=Lullaby of Birdland
TTITLE5=Lazy
TTITLE6=Jug Band Waltz
TTITLE7=Once Too Often
TTITLE8=Sentimental Journey
TTITLE9=Money
TTITLE10=Stormy Weather
TTITLE11=Mood Room Boogie
TTITLE12=Endless Road
EXTD=
EXTT0=
EXTT1=
EXTT2=Duke Robillard, vocal
EXTT3=
EXTT4=
EXTT5=
EXTT6=
EXTT7=Bob Malone, vocal
EXTT8=
EXTT9=Duke Robillard, vocal
EXTT10=
EXTT11=
EXTT12=
PLAYORDER=
